<!-- Generated by IcoMoon.io -->
<svg version="1.1" xmlns="http://www.w3.org/2000/svg" width="41" height="32" viewBox="0 0 41 32">
<path d="M40.395 3.765c-1.449 0.659-3.012 1.092-4.631 1.299 1.656-0.998 2.936-2.579 3.539-4.48-1.562 0.941-3.294 1.6-5.12 1.976-1.487-1.619-3.576-2.56-5.948-2.56-4.424 0-8.038 3.614-8.038 8.075 0 0.64 0.075 1.261 0.207 1.845-6.701-0.339-12.668-3.558-16.64-8.433-0.696 1.186-1.092 2.579-1.092 4.047 0 2.805 1.412 5.289 3.595 6.701-1.336 0-2.579-0.376-3.671-0.941 0 0 0 0 0 0.056 0 3.915 2.786 7.191 6.475 7.925-0.678 0.188-1.393 0.282-2.127 0.282-0.508 0-1.016-0.056-1.506-0.151 1.016 3.181 3.972 5.553 7.529 5.609-2.748 2.184-6.231 3.464-10.033 3.464-0.64 0-1.28-0.038-1.92-0.113 3.576 2.296 7.831 3.633 12.386 3.633 14.833 0 22.983-12.311 22.983-22.984 0-0.358 0-0.696-0.019-1.054 1.581-1.129 2.936-2.56 4.028-4.198z"></path>
</svg>
